# xmcd
#
# Track frame offsets:
#	150
#	19232
#	35415
#	51807
#	70360
#	86880
#	107067
#	123960
#	144810
#	160860
#	176540
#
# Disc length: 2545 seconds
#
# Revision: 3
# Processed by: cddbd v1.5.2PL0 Copyright (c) Steve Scherf et al.
# Submitted via: audiograbber 1.83.01
#
DISCID=8f09ef0b,9309ef0b
DTITLE=Jon Butcher Axis - Along the axis
DYEAR=1985
DGENRE=Rock
TTITLE0=Stop!
TTITLE1=Electricity
TTITLE2=Sounds of your voice
TTITLE3=Only the fox
TTITLE4=Along the axis
TTITLE5=Two hearts running
TTITLE6=I've got money
TTITLE7=Between the lines
TTITLE8=Carrie
TTITLE9=That's how strong my love is
TTITLE10=The ritual
EXTD=
EXTT0=
EXTT1=
EXTT2=
EXTT3=
EXTT4=
EXTT5=
EXTT6=
EXTT7=
EXTT8=
EXTT9=
EXTT10=
PLAYORDER=
